<svg width="17" height="18" viewBox="0 0 17 18" fill="none" xmlns="http://www.w3.org/2000/svg">
<path d="M12.793 3.50098C12.5195 3.50098 12.2852 3.59863 12.0898 3.79395C11.8945 3.98926 11.7969 4.22363 11.7969 4.49707C11.7969 4.77051 11.8945 5.00488 12.0898 5.2002C12.2852 5.39551 12.5195 5.49316 12.793 5.49316C13.0664 5.49316 13.3008 5.39551 13.4961 5.2002C13.6914 5.00488 13.7891 4.77051 13.7891 4.49707C13.7891 4.22363 13.6914 3.98926 13.4961 3.79395C13.3008 3.59863 13.0664 3.50098 12.793 3.50098ZM16.6211 5.5127C16.6081 5.14811 16.569 4.79329 16.5039 4.44824C16.4388 4.10319 16.3477 3.7679 16.2305 3.44238V3.50098C16.1263 3.2015 15.9928 2.93132 15.8301 2.69043C15.6673 2.44954 15.4818 2.22493 15.2734 2.0166C15.0781 1.80827 14.8568 1.62272 14.6094 1.45996C14.362 1.2972 14.1016 1.16374 13.8281 1.05957H13.7891C13.4896 0.942383 13.1706 0.847982 12.832 0.776367C12.4935 0.704752 12.1419 0.668945 11.7773 0.668945C11.3346 0.642904 10.9342 0.626627 10.5762 0.620117C10.2181 0.613607 9.47266 0.610352 8.33984 0.610352C7.20703 0.610352 6.46159 0.613607 6.10352 0.620117C5.74544 0.626627 5.34505 0.642904 4.90234 0.668945C4.53776 0.668945 4.18294 0.704752 3.83789 0.776367C3.49284 0.847982 3.15755 0.948893 2.83203 1.0791L2.89062 1.05957C2.59115 1.16374 2.32096 1.2972 2.08008 1.45996C1.83919 1.62272 1.61458 1.80827 1.40625 2.0166C1.19792 2.21191 1.01237 2.43327 0.849609 2.68066C0.686849 2.92806 0.553385 3.18848 0.449219 3.46191V3.50098C0.332031 3.80046 0.23763 4.11947 0.166016 4.45801C0.094401 4.79655 0.0585938 5.14811 0.0585938 5.5127C0.0325521 5.9554 0.016276 6.35579 0.00976562 6.71387C0.00325521 7.07194 0 7.81738 0 8.9502C0 10.083 0.00325521 10.8285 0.00976562 11.1865C0.016276 11.5446 0.0325521 11.945 0.0585938 12.3877C0.0585938 12.7523 0.094401 13.1071 0.166016 13.4521C0.23763 13.7972 0.338542 14.1325 0.46875 14.458L0.449219 14.3994C0.553385 14.6989 0.686849 14.9723 0.849609 15.2197C1.01237 15.4671 1.19792 15.6885 1.40625 15.8838C1.61458 16.0921 1.83919 16.2777 2.08008 16.4404C2.32096 16.6032 2.57812 16.7367 2.85156 16.8408H2.89062C3.1901 16.958 3.50911 17.0524 3.84766 17.124C4.1862 17.1956 4.53776 17.2314 4.90234 17.2314C5.34505 17.2575 5.74544 17.2738 6.10352 17.2803C6.46159 17.2868 7.20703 17.29 8.33984 17.29C9.47266 17.29 10.2181 17.2868 10.5762 17.2803C10.9342 17.2738 11.3346 17.2575 11.7773 17.2314C12.1419 17.2314 12.4967 17.1956 12.8418 17.124C13.1868 17.0524 13.5221 16.9515 13.8477 16.8213L13.7891 16.8408C14.0885 16.7367 14.362 16.6032 14.6094 16.4404C14.8568 16.2777 15.0781 16.0921 15.2734 15.8838C15.4818 15.6755 15.6673 15.4508 15.8301 15.21C15.9928 14.9691 16.1263 14.7119 16.2305 14.4385V14.3994C16.3477 14.0999 16.4388 13.7809 16.5039 13.4424C16.569 13.1038 16.6081 12.7523 16.6211 12.3877C16.6211 11.945 16.6309 11.5446 16.6504 11.1865C16.6699 10.8285 16.6797 10.083 16.6797 8.9502C16.6797 7.81738 16.6764 7.07194 16.6699 6.71387C16.6634 6.35579 16.6471 5.9554 16.6211 5.5127ZM15.1172 12.29C15.1172 12.5635 15.0911 12.8337 15.0391 13.1006C14.987 13.3675 14.9154 13.6247 14.8242 13.8721L14.8438 13.833C14.7656 14.0153 14.6745 14.1878 14.5703 14.3506C14.4661 14.5133 14.349 14.6598 14.2188 14.79C14.0885 14.9202 13.9421 15.0374 13.7793 15.1416C13.6165 15.2458 13.4505 15.3369 13.2812 15.415H13.2617C13.0273 15.5062 12.7799 15.5745 12.5195 15.6201C12.2591 15.6657 11.9922 15.695 11.7188 15.708H11.6992C11.2826 15.721 10.8984 15.7308 10.5469 15.7373C10.1953 15.7438 9.47266 15.7471 8.37891 15.7471C7.28516 15.7471 6.55924 15.7471 6.20117 15.7471C5.8431 15.7471 5.45573 15.734 5.03906 15.708C5.02604 15.708 5.01302 15.708 5 15.708C4.98698 15.708 4.96745 15.708 4.94141 15.708C4.66797 15.708 4.40104 15.6852 4.14062 15.6396C3.88021 15.5941 3.63281 15.5257 3.39844 15.4346L3.41797 15.4541C3.2487 15.376 3.08594 15.2848 2.92969 15.1807C2.77344 15.0765 2.63021 14.9593 2.5 14.8291C2.36979 14.6989 2.2526 14.5524 2.14844 14.3896C2.04427 14.2269 1.95964 14.0609 1.89453 13.8916V13.8721C1.79036 13.6377 1.70898 13.387 1.65039 13.1201C1.5918 12.8532 1.5625 12.5765 1.5625 12.29C1.5625 11.8734 1.55273 11.486 1.5332 11.1279C1.51367 10.7699 1.50391 10.0439 1.50391 8.9502C1.50391 7.85645 1.50716 7.13053 1.51367 6.77246C1.52018 6.41439 1.53646 6.02702 1.5625 5.61035C1.5625 5.32389 1.58854 5.0472 1.64062 4.78027C1.69271 4.51335 1.76432 4.25618 1.85547 4.00879V4.02832C1.93359 3.84603 2.02474 3.68001 2.12891 3.53027C2.23307 3.38053 2.35677 3.24056 2.5 3.11035C2.63021 2.98014 2.77018 2.85645 2.91992 2.73926C3.06966 2.62207 3.22917 2.53092 3.39844 2.46582L3.41797 2.44629C3.65234 2.35514 3.90299 2.28678 4.16992 2.24121C4.43685 2.19564 4.71354 2.17285 5 2.17285C5.41667 2.17285 5.80404 2.16309 6.16211 2.14355C6.52018 2.12402 7.24609 2.11426 8.33984 2.11426C9.43359 2.11426 10.1595 2.11751 10.5176 2.12402C10.8757 2.13053 11.263 2.14681 11.6797 2.17285C11.9531 2.17285 12.2233 2.19889 12.4902 2.25098C12.7572 2.30306 13.0143 2.37467 13.2617 2.46582L13.2227 2.44629C13.418 2.52441 13.597 2.61882 13.7598 2.72949C13.9225 2.84017 14.0755 2.96712 14.2188 3.11035C14.349 3.24056 14.4661 3.38053 14.5703 3.53027C14.6745 3.68001 14.7591 3.83952 14.8242 4.00879L14.8438 4.02832C14.9349 4.2627 15.0033 4.51335 15.0488 4.78027C15.0944 5.0472 15.1172 5.32389 15.1172 5.61035C15.1432 6.02702 15.1595 6.41439 15.166 6.77246C15.1725 7.13053 15.1758 7.85645 15.1758 8.9502C15.1758 10.0439 15.1725 10.7699 15.166 11.1279C15.1595 11.486 15.1432 11.8734 15.1172 12.29ZM8.33984 4.67285C7.75391 4.67285 7.20052 4.78353 6.67969 5.00488C6.15885 5.23926 5.70638 5.5485 5.32227 5.93262C4.93815 6.31673 4.63542 6.76921 4.41406 7.29004C4.19271 7.81087 4.08203 8.36426 4.08203 8.9502C4.08203 9.53613 4.19271 10.0895 4.41406 10.6104C4.63542 11.1312 4.93815 11.5837 5.32227 11.9678C5.70638 12.3519 6.15885 12.6611 6.67969 12.8955C7.20052 13.1169 7.75391 13.2275 8.33984 13.2275C8.9388 13.2275 9.4987 13.1169 10.0195 12.8955C10.5273 12.6611 10.9766 12.3519 11.3672 11.9678C11.7578 11.5837 12.0638 11.1312 12.2852 10.6104C12.5065 10.0895 12.6172 9.53613 12.6172 8.9502C12.6172 8.35124 12.5065 7.79785 12.2852 7.29004C12.0638 6.76921 11.7611 6.31348 11.377 5.92285C10.9928 5.53223 10.5404 5.22624 10.0195 5.00488C9.4987 4.78353 8.94531 4.67285 8.35938 4.67285C8.35938 4.67285 8.35612 4.67285 8.34961 4.67285C8.3431 4.67285 8.33984 4.67285 8.33984 4.67285ZM8.33984 11.7236C7.57161 11.7236 6.91732 11.4535 6.37695 10.9131C5.83659 10.3727 5.56641 9.71842 5.56641 8.9502C5.56641 8.18197 5.83659 7.52767 6.37695 6.9873C6.91732 6.44694 7.57161 6.17676 8.33984 6.17676C9.10807 6.17676 9.76237 6.44694 10.3027 6.9873C10.8431 7.52767 11.1133 8.18197 11.1133 8.9502C11.1133 9.71842 10.8431 10.3727 10.3027 10.9131C9.76237 11.4535 9.10807 11.7236 8.33984 11.7236Z" fill="white"/>
</svg>
