<svg width="19" height="14" viewBox="0 0 19 14" fill="none" xmlns="http://www.w3.org/2000/svg">
<path d="M18.3398 5.03613C18.3398 4.99707 18.3431 4.95801 18.3496 4.91895C18.3561 4.87988 18.3594 4.84082 18.3594 4.80176C18.3594 4.21582 18.291 3.64941 18.1543 3.10254C18.0176 2.55566 17.8255 2.04134 17.5781 1.55957L17.5977 1.59863C17.4154 1.3903 17.2038 1.21452 16.9629 1.07129C16.722 0.92806 16.4583 0.830403 16.1719 0.77832L16.1523 0.758789C15.2669 0.680664 14.3229 0.618815 13.3203 0.573242C12.3177 0.527669 11.2956 0.504883 10.2539 0.504883C10.0586 0.504883 9.86979 0.504883 9.6875 0.504883C9.50521 0.504883 9.31641 0.504883 9.12109 0.504883H9.17969C9.01042 0.504883 8.82812 0.504883 8.63281 0.504883C8.4375 0.504883 8.24219 0.504883 8.04688 0.504883C7.03125 0.504883 6.01562 0.527669 5 0.573242C3.98438 0.618815 2.97526 0.687175 1.97266 0.77832L2.22656 0.758789C1.99219 0.797852 1.77083 0.872722 1.5625 0.983398C1.35417 1.09408 1.17188 1.22754 1.01562 1.38379C0.638021 1.72233 0.400391 2.15853 0.302734 2.69238C0.205078 3.22624 0.136719 3.74707 0.0976562 4.25488C0.0716146 4.65853 0.0488281 5.09147 0.0292969 5.55371C0.00976562 6.01595 0 6.48145 0 6.9502C0 7.41895 0.00976562 7.89095 0.0292969 8.36621C0.0488281 8.84147 0.0716146 9.31348 0.0976562 9.78223V9.64551C0.110677 9.94499 0.139974 10.238 0.185547 10.5244C0.23112 10.8109 0.286458 11.0908 0.351562 11.3643V11.3252C0.403646 11.5335 0.478516 11.7354 0.576172 11.9307C0.673828 12.126 0.794271 12.3018 0.9375 12.458C1.10677 12.6143 1.29557 12.7477 1.50391 12.8584C1.71224 12.9691 1.93359 13.0505 2.16797 13.1025H2.1875C2.8776 13.1937 3.61328 13.262 4.39453 13.3076C5.17578 13.3532 5.97656 13.376 6.79688 13.376C6.9401 13.376 7.08008 13.376 7.2168 13.376C7.35352 13.376 7.49349 13.376 7.63672 13.376H7.59766C8.32682 13.389 9.03646 13.3955 9.72656 13.3955C10.4167 13.3955 11.11 13.3857 11.8066 13.3662C12.5033 13.3467 13.2031 13.3174 13.9062 13.2783C14.6094 13.2393 15.3385 13.1937 16.0938 13.1416C16.3411 13.1025 16.5723 13.0244 16.7871 12.9072C17.002 12.79 17.194 12.6533 17.3633 12.4971C17.4805 12.3799 17.5814 12.2529 17.666 12.1162C17.7507 11.9795 17.819 11.833 17.8711 11.6768V11.6572C18.0143 11.2536 18.125 10.8206 18.2031 10.3584C18.2812 9.89616 18.3203 9.41764 18.3203 8.92285C18.3203 8.90983 18.3203 8.89355 18.3203 8.87402C18.3203 8.85449 18.3203 8.83822 18.3203 8.8252C18.3333 8.59082 18.3398 7.96256 18.3398 6.94043C18.3398 5.91829 18.3398 5.28353 18.3398 5.03613ZM7.30469 9.33301V4.15723L12.2266 6.75488C11.5365 7.14551 10.7585 7.55566 9.89258 7.98535C9.02669 8.41504 8.16406 8.86426 7.30469 9.33301Z" fill="white"/>
</svg>
