<svg width="9" height="18" viewBox="0 0 9 18" fill="none" xmlns="http://www.w3.org/2000/svg">
<path d="M7.08984 3.3833H8.65234V0.727051C8.3138 0.687988 7.95573 0.658691 7.57812 0.63916C7.20052 0.619629 6.8099 0.609863 6.40625 0.609863C6.40625 0.609863 6.40299 0.609863 6.39648 0.609863C6.38997 0.609863 6.38021 0.609863 6.36719 0.609863C5.23438 0.609863 4.31641 0.948404 3.61328 1.62549C2.91016 2.30257 2.55859 3.27262 2.55859 4.53564V6.72314H0V9.69189H2.55859V17.2896H5.625V9.69189H8.18359L8.55469 6.72314H5.625V4.82861C5.625 4.38591 5.71615 4.03434 5.89844 3.77393C6.08073 3.51351 6.47786 3.3833 7.08984 3.3833Z" fill="#4470CF"/>
</svg>
