<svg width="17" height="18" viewBox="0 0 17 18" fill="none" xmlns="http://www.w3.org/2000/svg">
<path d="M8.33984 0.609863C7.19401 0.609863 6.11328 0.831217 5.09766 1.27393C4.08203 1.70361 3.19661 2.29606 2.44141 3.05127C1.6862 3.80648 1.09375 4.69189 0.664062 5.70752C0.221354 6.72314 0 7.80387 0 8.94971C0 10.0955 0.221354 11.1763 0.664062 12.1919C1.09375 13.2075 1.6862 14.0929 2.44141 14.8481C3.19661 15.6034 4.08203 16.1958 5.09766 16.6255C6.11328 17.0682 7.19401 17.2896 8.33984 17.2896C9.48568 17.2896 10.5664 17.0682 11.582 16.6255C12.5977 16.1958 13.4831 15.6034 14.2383 14.8481C14.9935 14.0929 15.5859 13.2075 16.0156 12.1919C16.4583 11.1763 16.6797 10.0955 16.6797 8.94971C16.6797 7.80387 16.4583 6.72314 16.0156 5.70752C15.5859 4.69189 14.9935 3.80648 14.2383 3.05127C13.4831 2.29606 12.5977 1.70361 11.582 1.27393C10.5664 0.831217 9.48568 0.609863 8.33984 0.609863ZM8.33984 2.28955C9.23828 2.28955 10.0814 2.45231 10.8691 2.77783C11.6569 3.10335 12.3438 3.55257 12.9297 4.12549C12.3568 4.47705 11.7415 4.80257 11.084 5.10205C10.4264 5.40153 9.7526 5.66846 9.0625 5.90283L8.90625 5.94189C8.52865 5.30387 8.14128 4.70166 7.74414 4.13525C7.34701 3.56885 6.92708 3.02523 6.48438 2.50439L6.52344 2.54346C6.79688 2.46533 7.08659 2.40348 7.39258 2.35791C7.69857 2.31234 8.01432 2.28955 8.33984 2.28955ZM4.92188 3.24658C5.33854 3.71533 5.73893 4.21012 6.12305 4.73096C6.50716 5.25179 6.86849 5.79216 7.20703 6.35205L7.26562 6.44971C6.51042 6.64502 5.70964 6.79476 4.86328 6.89893C4.01693 7.00309 3.15104 7.06169 2.26562 7.07471H1.95312C2.20052 6.25439 2.57812 5.51872 3.08594 4.86768C3.59375 4.21663 4.19271 3.68278 4.88281 3.26611L4.92188 3.24658ZM3.33984 13.3833C2.81901 12.7974 2.41211 12.13 2.11914 11.3813C1.82617 10.6326 1.67969 9.83512 1.67969 8.98877C1.67969 8.98877 1.67969 8.98551 1.67969 8.979C1.67969 8.97249 1.67969 8.96273 1.67969 8.94971C1.67969 8.91064 1.67969 8.87158 1.67969 8.83252C1.67969 8.79346 1.67969 8.75439 1.67969 8.71533H2.24609C3.28776 8.70231 4.30664 8.62093 5.30273 8.47119C6.29883 8.32145 7.27214 8.10986 8.22266 7.83643L8.06641 7.87549C8.20964 8.12288 8.3431 8.38005 8.4668 8.64697C8.5905 8.9139 8.71094 9.18408 8.82812 9.45752C8.15104 9.69189 7.51302 9.98161 6.91406 10.3267C6.3151 10.6717 5.75521 11.0526 5.23438 11.4692L5.25391 11.4497L5 11.6646C4.70052 11.925 4.41406 12.1951 4.14062 12.4751C3.86719 12.755 3.60677 13.0448 3.35938 13.3442L3.33984 13.3833ZM8.33984 15.6099C8.33984 15.6099 8.33659 15.6099 8.33008 15.6099C8.32357 15.6099 8.32031 15.6099 8.32031 15.6099C7.63021 15.6099 6.9694 15.509 6.33789 15.3071C5.70638 15.1053 5.1237 14.8221 4.58984 14.4575L4.60938 14.4771C4.81771 14.2427 5.0293 14.0181 5.24414 13.8032C5.45898 13.5884 5.67708 13.3768 5.89844 13.1685L5.91797 13.1489L6.17188 12.9341C6.65365 12.5304 7.16797 12.1724 7.71484 11.8599C8.26172 11.5474 8.83464 11.2804 9.43359 11.0591L9.51172 11.0396C9.73307 11.6255 9.94141 12.257 10.1367 12.9341C10.332 13.6112 10.5013 14.3143 10.6445 15.0435L10.6836 15.1997C10.3451 15.3299 9.97721 15.4308 9.58008 15.5024C9.18294 15.5741 8.78255 15.6099 8.37891 15.6099C8.36589 15.6099 8.35612 15.6099 8.34961 15.6099C8.3431 15.6099 8.33984 15.6099 8.33984 15.6099ZM12.207 14.3794C12.0378 13.6372 11.862 12.9471 11.6797 12.3091C11.4974 11.6711 11.2956 11.0526 11.0742 10.4536L11.1328 10.6489H11.4062C11.4193 10.6489 11.429 10.6489 11.4355 10.6489C11.4421 10.6489 11.4518 10.6489 11.4648 10.6489C11.4779 10.6489 11.4876 10.6489 11.4941 10.6489C11.5007 10.6489 11.5104 10.6489 11.5234 10.6489H12.0898C12.5456 10.6619 12.9948 10.7075 13.4375 10.7856C13.8802 10.8638 14.3099 10.9744 14.7266 11.1177L14.668 11.0981C14.4336 11.7752 14.1048 12.3905 13.6816 12.9438C13.2585 13.4972 12.7734 13.9692 12.2266 14.3599L12.207 14.3794ZM12.0898 8.94971C11.9987 8.94971 11.9108 8.94971 11.8262 8.94971C11.7415 8.94971 11.6602 8.94971 11.582 8.94971C11.556 8.94971 11.5267 8.94645 11.4941 8.93994C11.4616 8.93343 11.4323 8.93018 11.4062 8.93018C11.3802 8.93018 11.3542 8.93343 11.3281 8.93994C11.3021 8.94645 11.276 8.94971 11.25 8.94971C11.1198 8.96273 10.9961 8.97575 10.8789 8.98877C10.7617 9.00179 10.651 9.02132 10.5469 9.04736L10.5664 9.02783H10.4883C10.3711 8.75439 10.2474 8.48096 10.1172 8.20752C9.98698 7.93408 9.85677 7.65413 9.72656 7.36768C10.5469 7.08122 11.3151 6.76872 12.0312 6.43018C12.7474 6.09163 13.4375 5.72054 14.1016 5.31689L14.0039 5.37549C14.3164 5.87028 14.5605 6.41716 14.7363 7.01611C14.9121 7.61507 15 8.24007 15 8.89111C15 8.90413 15 8.9139 15 8.92041C15 8.92692 15 8.93669 15 8.94971C15 9.01481 15 9.08317 15 9.15479C15 9.2264 15 9.30127 15 9.37939C14.5833 9.23617 14.1374 9.12874 13.6621 9.05713C13.1868 8.98551 12.6953 8.94971 12.1875 8.94971C12.1745 8.94971 12.1582 8.94971 12.1387 8.94971C12.1191 8.94971 12.1029 8.94971 12.0898 8.94971Z" fill="#E94D88"/>
</svg>
